<svg xmlns="http://www.w3.org/2000/svg" width="44" height="45" viewBox="0 0 44 45" fill="none" >
    <path fill-rule="evenodd" clip-rule="evenodd" d="M4 10.3662C4 7.0525 6.68629 4.36621 10 4.36621H34C37.3137 4.36621 40 7.0525 40 10.3662V26.3662C40 29.6799 37.3137 32.3662 34 32.3662H10C6.68629 32.3662 4 29.6799 4 26.3662V10.3662ZM18.8578 15.7304L18.1723 18.4725C17.8941 19.5855 16.8941 20.3662 15.7469 20.3662H11.2415C10.413 20.3662 9.74145 19.6946 9.74145 18.8662C9.74145 18.0378 10.413 17.3662 11.2415 17.3662H15.3565L16.3224 13.5027C16.9107 11.1497 20.1682 10.9286 21.069 13.1805L24.5755 21.9468L25.8892 18.8814C26.2831 17.9622 27.187 17.3662 28.187 17.3662H32.7585C33.587 17.3662 34.2585 18.0378 34.2585 18.8662C34.2585 19.6946 33.587 20.3662 32.7585 20.3662H28.5168L26.8574 24.2381C25.98 26.2853 23.0655 26.2497 22.2383 24.1817L18.8578 15.7304ZM13 36.3662C11.8954 36.3662 11 37.2616 11 38.3662C11 39.4708 11.8954 40.3662 13 40.3662H31C32.1046 40.3662 33 39.4708 33 38.3662C33 37.2616 32.1046 36.3662 31 36.3662H13Z" fill="url(#paint0_linear_2752_183706-1)"></path>
    <defs>
        <linearGradient id="paint0_linear_2752_183706-1" x1="38.8417" y1="41.2869" x2="10.2834" y2="2.81176" gradientUnits="userSpaceOnUse">
            <stop stop-color="#3370FF"></stop>
            <stop offset="0.997908" stop-color="#33A9FF"></stop>
        </linearGradient>
    </defs>
</svg>
