<svg xmlns="http://www.w3.org/2000/svg" xmlns:xlink="http://www.w3.org/1999/xlink" width="44" height="45" viewBox="0 0 44 45" fill="none" class="injected-svg" data-src="https://lf3-static.bytednsdoc.com/obj/eden-cn/uvpahtvabh_lm_zhhwh/ljhwZthlaukjlkulzlp/activity_icons/exclusive-split-0518.svg">
  <path fill-rule="evenodd" clip-rule="evenodd" d="M16.4705 14.0152C15.299 12.8436 15.299 10.944 16.4705 9.77244L20.7131 5.5297C21.8846 4.3581 23.784 4.3581 24.9556 5.5297L29.1981 9.77244C30.3697 10.944 30.3697 12.8436 29.1981 14.0152L25.1206 18.0929H32.6674C36.5334 18.0929 39.6674 21.2269 39.6674 25.0929V33.154V33.3271V37.154C39.6674 38.2585 38.7719 39.154 37.6674 39.154H33.6674C32.5628 39.154 31.6674 38.2585 31.6674 37.154V33.3271V33.154V26.0929H23.5948H15.6674V33.1327L17.2685 33.1244C18.8397 33.1163 19.6322 35.0156 18.5212 36.1266L12.7374 41.9103C12.0506 42.5971 10.9371 42.5971 10.2503 41.9103L4.52588 36.1859C3.42107 35.0811 4.19797 33.1917 5.76038 33.1837L7.66737 33.1739V25.0929C7.66737 21.227 10.8014 18.0929 14.6674 18.0929H20.5481L16.4705 14.0152Z" fill="url(#paint0_linear_2752_183702-7)"/>
  <defs>
    <linearGradient id="paint0_linear_2752_183702-7" x1="38.52" y1="43.3915" x2="8.09686" y2="4.6982" gradientUnits="userSpaceOnUse">
      <stop stop-color="#3370FF"/>
      <stop offset="0.997908" stop-color="#33A9FF"/>
    </linearGradient>
  </defs>
</svg>
