<svg class="icon" viewBox="0 0 1024 1024" version="1.1" xmlns="http://www.w3.org/2000/svg"
     width="44" height="44">
    <defs>
        <linearGradient id="paint0_linear_memory" x1="1024" y1="1024" x2="8.09686" y2="4.6982" gradientUnits="userSpaceOnUse">
            <stop stop-color="#3370FF"/>
            <stop offset="0.997908" stop-color="#33A9FF"/>
        </linearGradient>
    </defs>
    <path d="M960 160v96c0 88.4-200.6 160-448 160S64 344.4 64 256V160C64 71.6 264.6 0 512 0s448 71.6 448 160z m-109.6 269.4c41.6-14.8 79.8-33.8 109.6-57.2V576c0 88.4-200.6 160-448 160S64 664.4 64 576V372.2c29.8 23.6 68 42.4 109.6 57.2C263.4 461.4 383 480 512 480s248.6-18.6 338.4-50.6zM64 692.2c29.8 23.6 68 42.4 109.6 57.2C263.4 781.4 383 800 512 800s248.6-18.6 338.4-50.6c41.6-14.8 79.8-33.8 109.6-57.2V864c0 88.4-200.6 160-448 160S64 952.4 64 864v-171.8z"
          fill="url(#paint0_linear_memory)"></path>
</svg>
