<svg t="1724931640169" class="icon" viewBox="0 0 1024 1024" version="1.1" xmlns="http://www.w3.org/2000/svg" p-id="1762"
  width="20" height="20">
  <path
    d="M1024 800a96 96 0 0 1-96 96h-192a96 96 0 0 1-96-96v-64a96 96 0 0 1 96-96h62.656c-2.56-44.416-11.84-70.72-24.576-79.36-15.36-10.304-32.896-12.928-79.552-13.632l-17.28-0.32a436.544 436.544 0 0 1-24.32-1.152l-14.72-1.472a185.792 185.792 0 0 1-75.712-24.832c-19.968-12.032-36.608-33.92-50.944-65.92-14.272 32-30.912 53.888-50.88 65.92a185.792 185.792 0 0 1-75.648 24.832l-14.72 1.472c-7.936 0.64-14.72 0.96-24.32 1.152l-17.28 0.32c-46.72 0.64-64.256 3.328-79.616 13.696-12.736 8.576-22.016 34.88-24.512 79.296H288A96 96 0 0 1 384 736v64A96 96 0 0 1 288 896h-192A96 96 0 0 1 0 800v-64A96 96 0 0 1 96 640h64.448c3.2-65.664 19.52-109.888 52.864-132.352 24.96-16.896 47.04-22.208 89.28-23.936l47.36-1.152c3.84-0.128 7.168-0.256 10.496-0.512l4.992-0.32c25.984-1.984 45.312-7.04 62.144-17.28 12.8-7.68 27.392-34.752 41.152-80.32L416 384A96 96 0 0 1 320 288v-64A96 96 0 0 1 416 128h192A96 96 0 0 1 704 224v64A96 96 0 0 1 608 384l-53.504 0.128c13.696 45.568 28.352 72.64 41.088 80.32 16.832 10.24 36.16 15.296 62.208 17.28l4.992 0.32c3.264 0.256 6.592 0.384 10.432 0.512l47.36 1.152c42.24 1.728 64.32 7.04 89.344 23.936 33.28 22.4 49.6 66.688 52.8 132.352h65.28a96 96 0 0 1 96 96z m-704 0v-64a32 32 0 0 0-32-32h-192a32 32 0 0 0-32 32v64a32 32 0 0 0 32 32h192a32 32 0 0 0 32-32z m320-512v-64a32 32 0 0 0-32-32h-192a32 32 0 0 0-32 32v64a32 32 0 0 0 32 32h192a32 32 0 0 0 32-32z m320 512v-64a32 32 0 0 0-32-32h-192a32 32 0 0 0-32 32v64a32 32 0 0 0 32 32h192a32 32 0 0 0 32-32z"
    fill="#666666" p-id="1763"></path>
</svg>
