<svg class="icon" viewBox="0 0 1024 1024" version="1.1" xmlns="http://www.w3.org/2000/svg" width="44" height="44">
    <defs>
        <linearGradient id="paint0_linear_robot" x1="1024" y1="1024" x2="8.09686" y2="4.6982" gradientUnits="userSpaceOnUse">
            <stop stop-color="#3370FF"/>
            <stop offset="0.997908" stop-color="#33A9FF"/>
        </linearGradient>
    </defs>
    <path d="M717.12 274H762c82.842 0 150 67.158 150 150v200c0 82.842-67.158 150-150 150H262c-82.842 0-150-67.158-150-150V424c0-82.842 67.158-150 150-150h44.88l-18.268-109.602c-4.086-24.514 12.476-47.7 36.99-51.786 24.514-4.086 47.7 12.476 51.786 36.99l20 120c0.246 1.472 0.416 2.94 0.516 4.398h228.192c0.1-1.46 0.27-2.926 0.516-4.398l20-120c4.086-24.514 27.272-41.076 51.786-36.99 24.514 4.086 41.076 27.272 36.99 51.786L717.12 274zM308 484v40c0 24.852 20.148 45 45 45S398 548.852 398 524v-40c0-24.852-20.148-45-45-45S308 459.148 308 484z m318 0v40c0 24.852 20.148 45 45 45S716 548.852 716 524v-40c0-24.852-20.148-45-45-45S626 459.148 626 484zM312 912c-24.852 0-45-20.148-45-45S287.148 822 312 822h400c24.852 0 45 20.148 45 45S736.852 912 712 912H312z"
          fill="url(#paint0_linear_robot)" ></path>
</svg>
