<svg class="icon" viewBox="0 0 1024 1024" version="1.1" xmlns="http://www.w3.org/2000/svg"
     width="44" height="4">
    <defs>
        <linearGradient id="paint0_linear_tool" x1="1024" y1="1024" x2="8.09686" y2="4.6982" gradientUnits="userSpaceOnUse">
            <stop stop-color="#3370FF"/>
            <stop offset="0.997908" stop-color="#33A9FF"/>
        </linearGradient>
    </defs>
    <path d="M1024 716.8v204.8a102.4 102.4 0 0 1-102.4 102.4h-204.8v-102.4a102.4 102.4 0 0 0-102.4-102.4 102.4 102.4 0 0 0-102.4 102.4v102.4H307.2a102.4 102.4 0 0 1-102.4-102.4v-204.8H102.4a102.4 102.4 0 0 1-102.4-102.4 102.4 102.4 0 0 1 102.4-102.4h102.4V307.2c0-56.32 46.08-102.4 102.4-102.4h204.8V102.4a102.4 102.4 0 0 1 102.4-102.4 102.4 102.4 0 0 1 102.4 102.4v102.4h204.8a102.4 102.4 0 0 1 102.4 102.4v204.8h-102.4a102.4 102.4 0 0 0-102.4 102.4 102.4 102.4 0 0 0 102.4 102.4h102.4z"
          fill="url(#paint0_linear_tool)"></path>
</svg>
