<svg xmlns="http://www.w3.org/2000/svg" width="44" height="44" viewBox="0 0 44 44" fill="none">
  <path fill-rule="evenodd" clip-rule="evenodd" d="M32.1112 5.9556C31.0632 4.90759 29.2716 5.65513 29.2792 7.13722L29.2873 8.71503H12.1184C8.37321 8.71503 5.33711 11.7511 5.33711 15.4963H5.34238C5.33971 15.538 5.33839 15.58 5.33846 15.6224L5.34892 21.6473C5.35171 23.2499 7.22508 24.1194 8.4509 23.087L12.2732 19.8679C12.9121 19.3298 13.2806 18.5369 13.2801 17.7016L13.2795 16.715H29.3285L29.3351 17.9931C29.3427 19.4669 31.125 20.1998 32.1671 19.1576L37.5671 13.7576C38.215 13.1098 38.215 12.0594 37.5671 11.4115L32.1112 5.9556ZM13.279 15.8694L13.2788 15.6243C13.2788 15.5813 13.2773 15.5386 13.2745 15.4963H13.3371C13.3371 15.6265 13.3167 15.7518 13.279 15.8694ZM11.4759 37.9731C12.5239 39.0211 14.3156 38.2736 14.3079 36.7915L14.2998 35.2137H31.4687C35.2139 35.2137 38.25 32.1776 38.25 28.4324H38.2447C38.2474 28.3907 38.2487 28.3487 38.2487 28.3063L38.2382 22.2814C38.2354 20.6788 36.362 19.8093 35.1362 20.8417L31.314 24.0608C30.675 24.599 30.3065 25.3918 30.307 26.2272L30.3076 27.2137H14.2586L14.252 25.9356C14.2444 24.4618 12.4622 23.7289 11.42 24.7711L6.02002 30.1711C5.37215 30.819 5.37215 31.8694 6.02002 32.5172L11.4759 37.9731ZM30.3082 28.0593L30.3083 28.3044C30.3083 28.3474 30.3098 28.3901 30.3127 28.4324H30.25C30.25 28.3023 30.2704 28.1769 30.3082 28.0593Z" fill="url(#paint0_linear_775_1137)"/>
  <defs>
    <linearGradient id="paint0_linear_775_1137" x1="6.39609" y1="39.3063" x2="32.5905" y2="4.10488" gradientUnits="userSpaceOnUse">
      <stop stop-color="#3370FF"/>
      <stop offset="0.997908" stop-color="#33A9FF"/>
    </linearGradient>
  </defs>
</svg>
